<svg width="10" height="15" viewBox="0 0 10 15" fill="none" xmlns="http://www.w3.org/2000/svg">
<path d="M5 0C2.2451 0 0 1.93626 0 4.95941C0 8.34464 5 15 5 15C5 15 10 8.36308 10 5.03222C10 1.97257 7.75478 0 5 0ZM5 7.77964C4.42907 7.77964 3.88166 7.54155 3.47793 7.11753C3.0742 6.69364 2.84751 6.11859 2.84751 5.51897C2.84751 4.91947 3.07421 4.34442 3.47793 3.9204C3.88166 3.49651 4.42907 3.2583 5 3.2583C5.57093 3.2583 6.11834 3.49652 6.52207 3.9204C6.9258 4.34442 7.15249 4.91947 7.15249 5.51897C7.15237 6.11847 6.92556 6.69342 6.52183 7.11718C6.11822 7.54108 5.57081 7.77916 4.99997 7.77916L5 7.77964Z" fill="#4F4F4F"/>
</svg>
